<?xml version="1.0" encoding="utf-8"?>
<!-- Generator: Adobe Illustrator 21.0.0, SVG Export Plug-In . SVG Version: 6.00 Build 0)  -->
<svg version="1.1" id="Layer_1" xmlns="http://www.w3.org/2000/svg" xmlns:xlink="http://www.w3.org/1999/xlink" x="0px" y="0px"
	 viewBox="0 0 1578 474" style="enable-background:new 0 0 1578 474;" xml:space="preserve">
<style type="text/css">
	.st0{fill:#FF9900;}
	.st1{fill:#CCCCCC;}
</style>
<path class="st0" d="M975.5,370.6C884.2,438,751.7,473.9,637.7,473.9c-159.9,0-303.9-59.1-412.8-157.5c-8.6-7.7-0.9-18.3,9.4-12.3
	c117.5,68.4,262.8,109.5,413,109.5c101.2,0,212.6-20.9,315-64.4C977.7,342.7,990.7,359.4,975.5,370.6"/>
<path class="st0" d="M1013.5,327.2c-11.6-14.9-77.2-7.1-106.6-3.6c-9,1.1-10.3-6.7-2.3-12.3c52.2-36.8,137.9-26.2,147.9-13.8
	c10,12.4-2.6,98.3-51.7,139.3c-7.5,6.3-14.7,2.9-11.4-5.4C1000.5,403.8,1025.2,342.2,1013.5,327.2"/>
<path class="st1" d="M908.9,51.8V16.1c0-5.4,4.1-9,9-9h160c5.1,0,9.2,3.7,9.2,9v30.6c-0.1,5.1-4.4,11.8-12,22.5l-82.9,118.4
	c30.8-0.8,63.3,3.8,91.2,19.6c6.3,3.6,8,8.8,8.5,13.9v38.1c0,5.2-5.7,11.3-11.8,8.1c-49.2-25.8-114.6-28.6-169,0.3
	c-5.5,3-11.4-3-11.4-8.2v-36.2c0-5.8,0.1-15.7,5.9-24.6l96-137.7h-83.6C913.1,60.8,908.9,57.1,908.9,51.8 M325.4,274.8h-48.7
	c-4.7-0.3-8.3-3.8-8.7-8.3V16.7c0-5,4.2-9,9.4-9h45.4c4.7,0.2,8.5,3.8,8.8,8.3v32.6h0.9c11.8-31.6,34.1-46.3,64.1-46.3
	c30.5,0,49.5,14.7,63.2,46.3C471.6,17.2,498.3,2.5,527,2.5c20.4,0,42.7,8.4,56.3,27.3c15.4,21,12.3,51.5,12.3,78.3l-0.1,157.6
	c0,5-4.2,9-9.4,9h-48.6c-4.9-0.3-8.8-4.2-8.8-9V133.3c0-10.5,1-36.8-1.4-46.8C523.8,69.7,512.9,65,498.8,65
	c-11.8,0-24.1,7.9-29.1,20.5c-5,12.6-4.5,33.7-4.5,47.8v132.4c0,5-4.2,9-9.4,9h-48.6c-4.9-0.3-8.8-4.2-8.8-9l-0.1-132.4
	c0-27.9,4.6-68.9-30-68.9c-35,0-33.6,40-33.6,68.9v132.4C334.8,270.7,330.6,274.8,325.4,274.8 M1224.9,2.5
	c72.2,0,111.3,62,111.3,140.9c0,76.2-43.2,136.6-111.3,136.6c-70.9,0-109.5-62-109.5-139.3C1115.4,62.9,1154.5,2.5,1224.9,2.5
	 M1225.3,53.4c-35.9,0-38.1,48.9-38.1,79.3c0,30.5-0.5,95.7,37.7,95.7c37.7,0,39.5-52.6,39.5-84.6c0-21.1-0.9-46.3-7.3-66.3
	C1251.7,60.2,1240.8,53.4,1225.3,53.4 M1429.9,274.8h-48.5c-4.9-0.3-8.8-4.2-8.8-9l-0.1-249.8c0.4-4.6,4.4-8.1,9.4-8.1h45.1
	c4.2,0.2,7.7,3.1,8.7,7v38.2h0.9c13.6-34.2,32.7-50.4,66.3-50.4c21.8,0,43.1,7.9,56.8,29.4c12.7,20,12.7,53.6,12.7,77.8v157.2
	c-0.5,4.4-4.6,7.9-9.4,7.9h-48.8c-4.4-0.3-8.1-3.6-8.6-7.9V131.2c0-27.3,3.1-67.3-30.5-67.3c-11.8,0-22.7,7.9-28.1,20
	c-6.8,15.3-7.7,30.5-7.7,47.3v134.5C1439.3,270.7,1435.1,274.8,1429.9,274.8 M868.1,229c-8.9-12.3-18.3-22.3-18.3-45.1V108
	c0-32.1,2.3-61.6-21.4-83.7C809.6,6.4,778.7,0.1,755,0.1c-46.3,0-98,17.2-108.8,74.5c-1.2,6.1,3.3,9.3,7.3,10.2l47.2,5.1
	c4.4-0.2,7.7-4.5,8.5-8.9c4-19.7,20.5-29.2,39.1-29.2c10.1,0,21.4,3.7,27.3,12.7c6.8,10,6,23.7,6,35.2v6.3
	c-28.2,3.2-65.1,5.3-91.5,16.9c-30.5,13.1-51.9,40-51.9,79.5c0,50.6,31.8,75.8,72.8,75.8c34.6,0,53.5-8.1,80.2-35.4
	c8.8,12.8,11.8,19,27.9,32.4c3.6,1.9,8.3,1.7,11.5-1.2l0.1,0.1c9.7-8.6,27.4-24,37.3-32.3C871.8,238.6,871.2,233.3,868.1,229
	L868.1,229z M772.3,207.1c-7.7,13.7-20.1,22.1-33.7,22.1c-18.7,0-29.6-14.2-29.6-35.3c0-41.5,37.2-49,72.4-49v10.5
	C781.4,174.4,781.9,190.2,772.3,207.1z M230.1,229c-8.9-12.3-18.3-22.3-18.3-45.1V108c0-32.1,2.3-61.6-21.4-83.7
	C171.6,6.4,140.7,0.1,117,0.1C70.7,0.1,19,17.3,8.1,74.5c-1.1,6.1,3.3,9.3,7.3,10.2l47.2,5.1c4.4-0.2,7.6-4.5,8.4-8.9
	c4-19.7,20.6-29.2,39.2-29.2c10,0,21.4,3.7,27.3,12.7c6.8,10,5.9,23.7,5.9,35.2v6.3c-28.2,3.2-65.1,5.3-91.5,16.9
	C21.4,135.9,0,162.8,0,202.3c0,50.6,31.9,75.8,72.8,75.8c34.6,0,53.5-8.1,80.2-35.4c8.9,12.8,11.8,19,27.9,32.4
	c3.6,1.9,8.3,1.7,11.5-1.2l0.1,0.1c9.7-8.6,27.4-24,37.3-32.3C233.9,238.6,233.2,233.3,230.1,229L230.1,229z M134.3,207.1
	c-7.7,13.7-20,22.1-33.7,22.1c-18.7,0-29.6-14.2-29.6-35.3c0-41.5,37.2-49,72.4-49v10.5C143.4,174.4,143.9,190.2,134.3,207.1z"/>
</svg>
